<!--?xml version="1.0" standalone="no"?-->
<svg xmlns="http://www.w3.org/2000/svg" version="1.2" baseProfile="tiny" width="480" height="270">
[<rect x="0" y="0" width="479" height="269" fill="rgb(66,74,79)" fill-opacity="1"></rect>,<polygon points="159,127 479,0 98,0" fill="rgb(126,148,163)" fill-opacity="0.5019607843137255"></polygon>,<polygon points="479,145 479,0 343,56" fill="rgb(195,162,139)" fill-opacity="0.5019607843137255"></polygon>,<polygon points="479,173 338,61 217,153" fill="rgb(15,0,0)" fill-opacity="0.5019607843137255"></polygon>,<polygon points="281,128 167,122 354,23" fill="rgb(139,93,69)" fill-opacity="0.5019607843137255"></polygon>,<polygon points="479,262 479,169 374,173" fill="rgb(163,121,86)" fill-opacity="0.5019607843137255"></polygon>,<polygon points="387,120 459,133 403,50" fill="rgb(169,155,124)" fill-opacity="0.5019607843137255"></polygon>,<polygon points="0,113 252,136 0,208" fill="rgb(0,1,9)" fill-opacity="0.5019607843137255"></polygon>,<polygon points="205,0 0,0 58,145" fill="rgb(0,92,129)" fill-opacity="0.5019607843137255"></polygon>,<polygon points="174,168 0,172 0,261" fill="rgb(30,59,78)" fill-opacity="0.5019607843137255"></polygon>,<polygon points="479,127 479,169 269,171" fill="rgb(8,0,0)" fill-opacity="0.5019607843137255"></polygon>,<polygon points="479,87 479,98 361,95" fill="rgb(140,75,0)" fill-opacity="0.5019607843137255"></polygon>,<polygon points="183,211 265,144 341,171" fill="rgb(76,82,101)" fill-opacity="0.5019607843137255"></polygon>,<polygon points="462,95 415,132 479,128" fill="rgb(151,159,147)" fill-opacity="0.5019607843137255"></polygon>,<polygon points="0,0 0,137 93,0" fill="rgb(0,72,103)" fill-opacity="0.5019607843137255"></polygon>,<polygon points="223,155 59,0 171,159" fill="rgb(52,96,121)" fill-opacity="0.5019607843137255"></polygon>,<polygon points="385,77 317,36 371,123" fill="rgb(96,52,21)" fill-opacity="0.5019607843137255"></polygon>,<polygon points="436,133 387,134 386,102" fill="rgb(123,74,0)" fill-opacity="0.5019607843137255"></polygon>,<polygon points="269,96 336,169 400,120" fill="rgb(18,11,0)" fill-opacity="0.5019607843137255"></polygon>,<polygon points="47,113 0,0 0,99" fill="rgb(0,74,102)" fill-opacity="0.5019607843137255"></polygon>,<polygon points="1,269 121,204 479,269" fill="rgb(36,33,44)" fill-opacity="0.5019607843137255"></polygon>,<polygon points="56,111 0,122 0,100" fill="rgb(80,98,120)" fill-opacity="0.5019607843137255"></polygon>,<polygon points="85,216 85,197 152,173" fill="rgb(28,29,27)" fill-opacity="0.5019607843137255"></polygon>,<polygon points="0,182 92,94 177,137" fill="rgb(3,17,14)" fill-opacity="0.5019607843137255"></polygon>,<polygon points="135,138 169,108 208,107" fill="rgb(50,42,51)" fill-opacity="0.5019607843137255"></polygon>,<polygon points="377,75 397,94 359,90" fill="rgb(144,105,79)" fill-opacity="0.5019607843137255"></polygon>,<polygon points="100,269 202,167 58,269" fill="rgb(27,19,12)" fill-opacity="0.5019607843137255"></polygon>,<polygon points="479,229 479,219 354,179" fill="rgb(0,62,121)" fill-opacity="0.5019607843137255"></polygon>,<polygon points="185,92 99,4 69,106" fill="rgb(58,105,127)" fill-opacity="0.5019607843137255"></polygon>,<polygon points="479,169 479,221 398,169" fill="rgb(155,121,88)" fill-opacity="0.5019607843137255"></polygon>,<polygon points="324,238 395,269 387,165" fill="rgb(46,37,35)" fill-opacity="0.5019607843137255"></polygon>,<polygon points="360,184 301,172 328,172" fill="rgb(45,31,17)" fill-opacity="0.5019607843137255"></polygon>,<polygon points="321,201 399,269 425,269" fill="rgb(2,19,26)" fill-opacity="0.5019607843137255"></polygon>,<polygon points="68,254 204,160 35,269" fill="rgb(113,119,141)" fill-opacity="0.5019607843137255"></polygon>,<polygon points="187,89 279,94 295,0" fill="rgb(134,137,140)" fill-opacity="0.5019607843137255"></polygon>,<polygon points="397,187 322,52 297,155" fill="rgb(28,18,0)" fill-opacity="0.5019607843137255"></polygon>,<polygon points="86,141 65,117 52,151" fill="rgb(41,84,109)" fill-opacity="0.5019607843137255"></polygon>,<polygon points="0,155 46,111 65,132" fill="rgb(3,4,0)" fill-opacity="0.5019607843137255"></polygon>,<polygon points="64,120 127,88 0,85" fill="rgb(9,85,111)" fill-opacity="0.5019607843137255"></polygon>,<polygon points="430,181 372,173 352,195" fill="rgb(148,97,39)" fill-opacity="0.5019607843137255"></polygon>,<polygon points="60,170 139,109 106,97" fill="rgb(14,20,17)" fill-opacity="0.5019607843137255"></polygon>,<polygon points="449,92 267,10 453,0" fill="rgb(135,123,122)" fill-opacity="0.5019607843137255"></polygon>,<polygon points="76,202 118,178 0,218" fill="rgb(128,123,133)" fill-opacity="0.5019607843137255"></polygon>,<polygon points="306,156 303,172 307,172" fill="rgb(58,119,149)" fill-opacity="0.5019607843137255"></polygon>,<polygon points="97,169 60,166 51,201" fill="rgb(39,89,116)" fill-opacity="0.5019607843137255"></polygon>,<polygon points="401,132 331,154 449,173" fill="rgb(22,14,0)" fill-opacity="0.5019607843137255"></polygon>,<line x1="325" y1="56" x2="343" y2="87" stroke="rgb(27,12,0)" stroke-width="1" fill="none" stroke-opacity="0.5019607843137255"></line>,<polygon points="350,54 345,76 333,55" fill="rgb(15,8,0)" fill-opacity="0.5019607843137255"></polygon>,<line x1="0" y1="126" x2="6" y2="172" stroke="rgb(0,0,0)" stroke-width="1" fill="none" stroke-opacity="0.5019607843137255"></line>,<polygon points="309,5 269,63 324,56" fill="rgb(138,135,136)" fill-opacity="0.5019607843137255"></polygon>,<polygon points="178,0 277,51 99,92" fill="rgb(83,109,127)" fill-opacity="0.5019607843137255"></polygon>,<polygon points="406,221 316,174 400,197" fill="rgb(119,57,15)" fill-opacity="0.5019607843137255"></polygon>,<polygon points="406,199 421,203 410,269" fill="rgb(0,58,97)" fill-opacity="0.5019607843137255"></polygon>,<polygon points="318,99 225,130 199,97" fill="rgb(121,68,41)" fill-opacity="0.5019607843137255"></polygon>,<polygon points="154,113 125,68 142,130" fill="rgb(69,110,137)" fill-opacity="0.5019607843137255"></polygon>,<polygon points="384,186 433,195 399,167" fill="rgb(146,95,27)" fill-opacity="0.5019607843137255"></polygon>,<polygon points="223,152 192,136 355,137" fill="rgb(1,12,9)" fill-opacity="0.5019607843137255"></polygon>,<polygon points="323,188 347,177 345,204" fill="rgb(131,73,44)" fill-opacity="0.5019607843137255"></polygon>,<polygon points="363,149 338,147 359,138" fill="rgb(94,64,44)" fill-opacity="0.5019607843137255"></polygon>,<polygon points="158,163 91,184 103,102" fill="rgb(10,17,13)" fill-opacity="0.5019607843137255"></polygon>,<polygon points="24,91 180,73 4,77" fill="rgb(73,111,124)" fill-opacity="0.5019607843137255"></polygon>,<polygon points="469,269 421,268 420,202" fill="rgb(109,91,88)" fill-opacity="0.5019607843137255"></polygon>,<polygon points="161,170 170,172 173,162" fill="rgb(6,1,0)" fill-opacity="0.5019607843137255"></polygon>,<polygon points="373,106 359,65 347,82" fill="rgb(114,80,58)" fill-opacity="0.5019607843137255"></polygon>,<polygon points="388,194 394,189 331,168" fill="rgb(62,127,172)" fill-opacity="0.5019607843137255"></polygon>,<polygon points="242,126 295,131 157,133" fill="rgb(29,81,104)" fill-opacity="0.5019607843137255"></polygon>,<polygon points="243,149 135,229 318,265" fill="rgb(82,72,83)" fill-opacity="0.5019607843137255"></polygon>,<line x1="327" y1="166" x2="359" y2="177" stroke="rgb(144,151,156)" stroke-width="1" fill="none" stroke-opacity="0.5019607843137255"></line>,<polygon points="270,94 278,147 294,119" fill="rgb(69,79,82)" fill-opacity="0.5019607843137255"></polygon>,<polygon points="0,223 82,263 0,269" fill="rgb(20,44,61)" fill-opacity="0.5019607843137255"></polygon>,<polygon points="276,73 275,92 86,80" fill="rgb(126,137,139)" fill-opacity="0.5019607843137255"></polygon>,<polygon points="479,131 479,170 422,134" fill="rgb(23,6,0)" fill-opacity="0.5019607843137255"></polygon>,<line x1="269" y1="5" x2="315" y2="107" stroke="rgb(125,125,123)" stroke-width="1" fill="none" stroke-opacity="0.5019607843137255"></line>,<polygon points="348,139 462,172 450,132" fill="rgb(29,23,0)" fill-opacity="0.5019607843137255"></polygon>,<polygon points="473,256 419,208 420,230" fill="rgb(135,100,85)" fill-opacity="0.5019607843137255"></polygon>,<polygon points="66,125 0,177 0,124" fill="rgb(3,11,6)" fill-opacity="0.5019607843137255"></polygon>,<polygon points="468,261 284,160 479,259" fill="rgb(34,95,135)" fill-opacity="0.5019607843137255"></polygon>,<line x1="204" y1="150" x2="97" y2="186" stroke="rgb(154,147,155)" stroke-width="1" fill="none" stroke-opacity="0.5019607843137255"></line>,<polygon points="157,151 172,127 204,149" fill="rgb(35,99,125)" fill-opacity="0.5019607843137255"></polygon>,<polygon points="343,99 394,92 385,118" fill="rgb(81,36,0)" fill-opacity="0.5019607843137255"></polygon>,<polygon points="61,235 81,218 188,165" fill="rgb(118,108,126)" fill-opacity="0.5019607843137255"></polygon>,<polygon points="0,169 0,125 19,166" fill="rgb(2,3,1)" fill-opacity="0.5019607843137255"></polygon>,<line x1="314" y1="187" x2="393" y2="235" stroke="rgb(73,128,165)" stroke-width="1" fill="none" stroke-opacity="0.5019607843137255"></line>,<polygon points="479,175 410,177 431,204" fill="rgb(142,119,101)" fill-opacity="0.5019607843137255"></polygon>,<polygon points="404,227 393,234 318,182" fill="rgb(92,48,20)" fill-opacity="0.5019607843137255"></polygon>,<line x1="393" y1="99" x2="439" y2="124" stroke="rgb(157,159,159)" stroke-width="1" fill="none" stroke-opacity="0.5019607843137255"></line>,<polygon points="190,128 214,91 285,119" fill="rgb(126,74,50)" fill-opacity="0.5019607843137255"></polygon>,<polygon points="346,195 355,178 355,216" fill="rgb(24,90,138)" fill-opacity="0.5019607843137255"></polygon>,<polygon points="290,163 283,155 344,177" fill="rgb(1,14,12)" fill-opacity="0.5019607843137255"></polygon>,<polygon points="74,192 77,165 122,173" fill="rgb(36,55,67)" fill-opacity="0.5019607843137255"></polygon>,<polygon points="449,176 450,170 413,170" fill="rgb(148,89,14)" fill-opacity="0.5019607843137255"></polygon>,<line x1="398" y1="99" x2="454" y2="128" stroke="rgb(151,154,160)" stroke-width="1" fill="none" stroke-opacity="0.5019607843137255"></line>,<polygon points="158,197 126,169 126,217" fill="rgb(76,93,115)" fill-opacity="0.5019607843137255"></polygon>,<polygon points="231,149 208,159 199,171" fill="rgb(45,38,42)" fill-opacity="0.5019607843137255"></polygon>,<line x1="0" y1="163" x2="155" y2="159" stroke="rgb(0,0,0)" stroke-width="1" fill="none" stroke-opacity="0.5019607843137255"></line>,<polygon points="14,158 161,159 85,167" fill="rgb(0,0,0)" fill-opacity="0.5019607843137255"></polygon>,<polygon points="377,223 355,215 442,269" fill="rgb(37,98,137)" fill-opacity="0.5019607843137255"></polygon>,<polygon points="354,36 342,66 314,39" fill="rgb(75,59,57)" fill-opacity="0.5019607843137255"></polygon>,<polygon points="249,139 250,120 216,137" fill="rgb(13,36,50)" fill-opacity="0.5019607843137255"></polygon>,<polygon points="123,235 52,269 116,269" fill="rgb(27,27,27)" fill-opacity="0.5019607843137255"></polygon>,<polygon points="304,98 201,92 212,98" fill="rgb(65,67,81)" fill-opacity="0.5019607843137255"></polygon>,<polygon points="318,67 336,160 348,63" fill="rgb(12,10,0)" fill-opacity="0.5019607843137255"></polygon>,<polygon points="404,116 387,79 464,132" fill="rgb(145,144,135)" fill-opacity="0.5019607843137255"></polygon>,<polygon points="417,0 479,56 479,0" fill="rgb(121,91,87)" fill-opacity="0.5019607843137255"></polygon>,<polygon points="105,152 120,129 122,155" fill="rgb(29,51,58)" fill-opacity="0.5019607843137255"></polygon>,<polygon points="320,126 307,125 317,133" fill="rgb(116,100,71)" fill-opacity="0.5019607843137255"></polygon>,<polygon points="421,94 463,99 479,96" fill="rgb(143,118,0)" fill-opacity="0.5019607843137255"></polygon>,<polygon points="362,198 360,180 355,186" fill="rgb(153,87,0)" fill-opacity="0.5019607843137255"></polygon>,<polygon points="245,129 242,118 255,106" fill="rgb(136,89,59)" fill-opacity="0.5019607843137255"></polygon>,<polygon points="188,184 306,219 251,152" fill="rgb(92,83,96)" fill-opacity="0.5019607843137255"></polygon>,<polygon points="159,155 120,166 153,164" fill="rgb(7,4,1)" fill-opacity="0.5019607843137255"></polygon>,<polygon points="77,253 43,269 77,225" fill="rgb(56,75,95)" fill-opacity="0.5019607843137255"></polygon>,<polygon points="0,111 11,115 0,116" fill="rgb(169,100,87)" fill-opacity="0.5019607843137255"></polygon>,<polygon points="453,131 413,123 427,134" fill="rgb(148,108,30)" fill-opacity="0.5019607843137255"></polygon>,<polygon points="281,106 280,54 319,108" fill="rgb(80,69,56)" fill-opacity="0.5019607843137255"></polygon>,<polygon points="203,122 166,116 202,142" fill="rgb(71,73,83)" fill-opacity="0.5019607843137255"></polygon>,<line x1="275" y1="167" x2="346" y2="216" stroke="rgb(17,35,48)" stroke-width="1" fill="none" stroke-opacity="0.5019607843137255"></line>,<polygon points="393,99 479,125 479,101" fill="rgb(138,149,153)" fill-opacity="0.5019607843137255"></polygon>,<polygon points="265,126 294,145 294,134" fill="rgb(42,70,83)" fill-opacity="0.5019607843137255"></polygon>,<polygon points="119,109 100,161 62,110" fill="rgb(17,25,24)" fill-opacity="0.5019607843137255"></polygon>,<polygon points="35,244 81,199 6,228" fill="rgb(14,47,67)" fill-opacity="0.5019607843137255"></polygon>,<polygon points="317,84 305,107 299,67" fill="rgb(109,98,87)" fill-opacity="0.5019607843137255"></polygon>,<polygon points="388,97 385,179 354,129" fill="rgb(18,10,0)" fill-opacity="0.5019607843137255"></polygon>,<polygon points="44,200 0,219 0,169" fill="rgb(23,62,82)" fill-opacity="0.5019607843137255"></polygon>,<polygon points="143,0 152,74 238,0" fill="rgb(69,107,127)" fill-opacity="0.5019607843137255"></polygon>,<polygon points="392,69 383,88 479,80" fill="rgb(136,143,145)" fill-opacity="0.5019607843137255"></polygon>,<polygon points="267,160 383,269 278,142" fill="rgb(34,56,73)" fill-opacity="0.5019607843137255"></polygon>,<polygon points="387,237 406,201 405,231" fill="rgb(102,87,84)" fill-opacity="0.5019607843137255"></polygon>,<polygon points="36,117 44,115 47,109" fill="rgb(107,109,119)" fill-opacity="0.5019607843137255"></polygon>,<polygon points="422,269 415,255 351,269" fill="rgb(21,32,40)" fill-opacity="0.5019607843137255"></polygon>,<polygon points="288,45 325,51 304,86" fill="rgb(136,131,131)" fill-opacity="0.5019607843137255"></polygon>,<polygon points="407,202 396,216 385,193" fill="rgb(129,80,49)" fill-opacity="0.5019607843137255"></polygon>,<polygon points="420,231 479,269 479,262" fill="rgb(0,47,76)" fill-opacity="0.5019607843137255"></polygon>,<polygon points="349,242 295,269 309,176" fill="rgb(55,56,71)" fill-opacity="0.5019607843137255"></polygon>,<polygon points="319,269 177,189 119,243" fill="rgb(60,59,66)" fill-opacity="0.5019607843137255"></polygon>]</svg>